<?xml version="1.0" encoding="UTF-8"?>
<svg xmlns="http://www.w3.org/2000/svg" onmouseup="{ if(window.parent.document.onmouseup) window.parent.document.onmouseup(arguments[0]);}" width="36" viewBox="0 0 36 36" id="S_NamingOrder_18_N_2x" height="36" data-name="S_NamingOrder_18_N@2x"><defs><style>
      .fill {
        fill: #6e6e6e;
      }

      
    </style></defs><path data-cppathid="10000" d="M6.161,16.735,4.62,21.756c-.056.182-.141.244-.308.244h-2.8c-.169,0-.225-.091-.2-.3L7.085,3.857a5.029,5.029,0,0,0,.253-1.643c0-.123.056-.214.168-.214H11.4c.141,0,.168.03.2.183l6.471,19.543c.029.183,0,.274-.168.274H14.762a.281.281,0,0,1-.281-.183l-1.625-5.082Zm5.8-3.319c-.588-2.01-1.905-6.24-2.466-8.371H9.467c-.448,2.04-1.57,5.6-2.409,8.371Z" class="fill"/><path data-cppathid="10001" d="M19.226,34c-.113,0-.225-.03-.225-.244v-2.04a.692.692,0,0,1,.084-.365l9.722-14.064H19.422c-.141,0-.225-.029-.2-.212l.42-2.831c.028-.182.112-.244.251-.244H32.926c.138,0,.168.062.168.183v2.192a.653.653,0,0,1-.141.426L23.4,30.683H33.43c.138,0,.2.091.138.274l-.447,2.8c-.027.182-.084.244-.252.244Z" class="fill"/></svg>