<?xml version="1.0" encoding="UTF-8"?>
<svg xmlns="http://www.w3.org/2000/svg" onmouseup="{ if(window.parent.document.onmouseup) window.parent.document.onmouseup(arguments[0]);}" width="36" viewBox="0 0 36 36" id="S_Home_18_N_2x" height="36" data-name="S_Home_18_N@2x"><defs><style>
      .fill {
        fill: #707070;
      }

      
    </style></defs><path data-cppathid="10000" d="M35.332,20.25,18.75,3.668a1.063,1.063,0,0,0-1.5,0L.668,20.25a1.061,1.061,0,0,0,0,1.5l1.958,1.957A1,1,0,0,0,3.333,24H4v9a1,1,0,0,0,1,1h8a1,1,0,0,0,1-1V23a1,1,0,0,1,1-1h6a1,1,0,0,1,1,1V33a1,1,0,0,0,1,1h8a1,1,0,0,0,1-1V24h.667a1,1,0,0,0,.707-.293l1.958-1.957A1.061,1.061,0,0,0,35.332,20.25Z" class="fill"/></svg>