<?xml version="1.0" encoding="UTF-8"?>
<svg xmlns="http://www.w3.org/2000/svg" onmouseup="{ if(window.parent.document.onmouseup) window.parent.document.onmouseup(arguments[0]);}" width="36" viewBox="0 0 36 36" id="S_Info_18_N_2x" height="36" data-name="S_Info_18_N@2x"><defs><style>
      .fill {
        fill: #707070;
      }

      
    </style></defs><path data-cppathid="10000" d="M18,2A16,16,0,1,0,34,18,16,16,0,0,0,18,2Zm-.3,4.3a2.718,2.718,0,0,1,2.864,2.824A2.664,2.664,0,0,1,17.7,11.987a2.705,2.705,0,0,1-2.864-2.864A2.717,2.717,0,0,1,17.7,6.3ZM22,27a1,1,0,0,1-1,1H15a1,1,0,0,1-1-1V25a1,1,0,0,1,1-1h1V18H15a1,1,0,0,1-1-1V15a1,1,0,0,1,1-1h4a1,1,0,0,1,1,1v9h1a1,1,0,0,1,1,1Z" class="fill"/></svg>