<?xml version="1.0" encoding="UTF-8"?>
<svg xmlns="http://www.w3.org/2000/svg" onmouseup="{ if(window.parent.document.onmouseup) window.parent.document.onmouseup(arguments[0]);}" width="36" viewBox="0 0 36 36" id="S_Calendar_18_N_2x" height="36" data-name="S_Calendar_18_N@2x"><defs><style>
      .fill {
        fill: #707070;
      }

      
    </style></defs><path data-cppathid="10000" d="M33,6H28V3a1,1,0,0,0-1-1H25a1,1,0,0,0-1,1V6H10V3A1,1,0,0,0,9,2H7A1,1,0,0,0,6,3V6H1A1,1,0,0,0,0,7V33a1,1,0,0,0,1,1H33a1,1,0,0,0,1-1V7A1,1,0,0,0,33,6ZM32,32H2V8H6V9a1,1,0,0,0,1,1H9a1,1,0,0,0,1-1V8H24V9a1,1,0,0,0,1,1h2a1,1,0,0,0,1-1V8h4Z" class="fill"/><rect data-cppathid="10001" y="12" x="6" width="4" height="4" class="fill"/><rect data-cppathid="10002" y="12" x="12" width="4" height="4" class="fill"/><rect data-cppathid="10003" y="12" x="18" width="4" height="4" class="fill"/><rect data-cppathid="10004" y="12" x="24" width="4" height="4" class="fill"/><rect data-cppathid="10005" y="18" x="6" width="4" height="4" class="fill"/><rect data-cppathid="10006" y="18" x="12" width="4" height="4" class="fill"/><rect data-cppathid="10007" y="18" x="18" width="4" height="4" class="fill"/><rect data-cppathid="10008" y="18" x="24" width="4" height="4" class="fill"/><rect data-cppathid="10009" y="24" x="6" width="4" height="4" class="fill"/><rect data-cppathid="10010" y="24" x="12" width="4" height="4" class="fill"/><rect data-cppathid="10011" y="24" x="18" width="4" height="4" class="fill"/><rect data-cppathid="10012" y="24" x="24" width="4" height="4" class="fill"/></svg>